<svg width="351" height="100" viewBox="0 0 351 100" fill="none" xmlns="http://www.w3.org/2000/svg">
<g clip-path="url(#clip0_10_181)">
<path d="M45.6 69.12C44.2667 69.5467 42.4533 69.9467 40.16 70.32C37.8667 70.6933 36.08 70.88 34.8 70.88C29.84 70.88 26.3467 69.3333 24.32 66.24C22.3467 63.1467 21.8133 58.3733 22.72 51.92C23.6267 45.4133 25.52 40.64 28.4 37.6C31.28 34.56 35.2 33.04 40.16 33.04C41.6533 33.04 43.2267 33.2 44.88 33.52C46.5333 33.84 47.6267 34.1067 48.16 34.32C48.6933 34.5333 49.0667 34.6667 49.28 34.72L47.44 40.48C46.48 40 45.2533 39.6533 43.76 39.44C42.2667 39.2267 41.2267 39.12 40.64 39.12C37.44 39.12 35.12 40.1867 33.68 42.32C32.24 44.4 31.2533 47.6 30.72 51.92C30.08 56.3467 30.1867 59.5467 31.04 61.52C32 63.6533 33.9733 64.72 36.96 64.72H38.56L39.92 55.04H36.08L36.96 48.96H48.4L45.6 69.12ZM58.6242 70H51.1842L55.1842 41.68H61.7442L61.5042 45.44H61.5842C62.3842 44.16 63.3976 43.0933 64.6242 42.24C65.8509 41.3867 66.9176 40.96 67.8242 40.96C68.7309 40.96 69.3176 41.04 69.5842 41.2C69.9042 41.3067 70.1976 41.4133 70.4642 41.52L68.9442 48C68.6242 47.9467 68.1976 47.84 67.6642 47.68C67.1842 47.52 66.6242 47.44 65.9842 47.44C65.3442 47.44 64.6776 47.6533 63.9842 48.08C63.2909 48.5067 62.4109 49.2 61.3442 50.16L58.6242 70ZM90.9495 47.04C89.9895 46.9333 88.7362 46.88 87.1895 46.88C85.6429 46.88 84.3362 47.52 83.2695 48.8C82.2562 50.08 81.5095 52.4 81.0295 55.76C80.6029 59.0667 80.6295 61.3333 81.1095 62.56C81.6429 63.7867 82.6562 64.4 84.1495 64.4C85.0562 64.4 85.9362 64.1333 86.7895 63.6C87.6962 63.0133 88.4162 62.4 88.9495 61.76L90.9495 47.04ZM88.9495 66.64C85.9095 69.36 82.9495 70.72 80.0695 70.72C75.9095 70.72 73.5362 68.1333 72.9495 62.96C72.7362 61.1467 72.8162 58.9067 73.1895 56.24C73.5629 53.52 74.2029 51.2 75.1095 49.28C76.0162 47.36 77.0829 45.7867 78.3095 44.56C80.6029 42.32 83.4562 41.2 86.8695 41.2C90.9229 41.2 95.0029 41.6 99.1095 42.4L95.1895 70H88.9495V66.64ZM113.282 50.48L111.282 64.64C112.135 65.0667 113.175 65.28 114.402 65.28C116.269 65.28 117.762 64.5867 118.882 63.2C120.002 61.8133 120.775 59.4667 121.202 56.16C121.682 52.8533 121.629 50.56 121.042 49.28C120.509 48 119.469 47.36 117.922 47.36C116.375 47.36 114.829 48.4 113.282 50.48ZM107.042 41.68H114.002L113.762 45.36H113.842C114.482 44.6133 115.335 43.8667 116.402 43.12C118.375 41.7333 120.109 41.04 121.602 41.04C123.149 41.04 124.429 41.3333 125.442 41.92C126.455 42.5067 127.282 43.3867 127.922 44.56C129.255 47.1733 129.629 50.8 129.042 55.44C128.349 60.4533 126.749 64.2933 124.242 66.96C122.002 69.4667 119.255 70.72 116.002 70.72C113.975 70.72 112.162 70.3467 110.562 69.6L108.642 82.56H101.282L107.042 41.68ZM137.036 30.32L144.636 29.28L142.396 45.28H142.476C142.69 45.12 143.036 44.8 143.516 44.32C143.996 43.84 144.583 43.36 145.276 42.88C147.036 41.6533 148.903 41.04 150.876 41.04C153.543 41.04 155.303 41.84 156.156 43.44C157.01 45.04 157.196 47.52 156.716 50.88L154.156 70H146.716L149.036 52.72C149.303 50.6933 149.303 49.3333 149.036 48.64C148.77 47.8933 148.05 47.52 146.876 47.52C145.863 47.52 144.956 47.8133 144.156 48.4C142.876 49.4133 142.05 50.16 141.676 50.64L138.956 70H131.516L137.036 30.32ZM172.73 64.64C174.916 64.64 176.623 63.5467 177.85 61.36C179.076 59.12 179.956 55.9733 180.49 51.92C181.076 47.8133 181.05 44.6667 180.41 42.48C179.77 40.24 178.383 39.12 176.25 39.12C174.17 39.12 172.516 40.24 171.29 42.48C170.063 44.6667 169.156 47.8133 168.57 51.92C167.983 55.9733 167.983 59.12 168.57 61.36C169.156 63.5467 170.543 64.64 172.73 64.64ZM179.37 68.88C180.863 70.3733 182.703 71.5733 184.89 72.48L180.81 77.6C179.05 77.2267 176.97 76.0267 174.57 74C173.61 73.1467 172.703 72.0533 171.85 70.72C162.623 70.72 158.89 64.4533 160.65 51.92C161.556 45.4133 163.423 40.64 166.25 37.6C169.076 34.56 172.703 33.04 177.13 33.04C181.61 33.04 184.836 34.56 186.81 37.6C188.783 40.64 189.316 45.4133 188.41 51.92C187.183 60.5067 184.17 66.16 179.37 68.88ZM192.161 70L197.281 33.68H204.961L200.641 63.76H211.441L210.081 70H192.161ZM243.04 46.88L234.4 66.96H229.12C229.014 66.1067 228.667 63.9467 228.08 60.48C227.494 56.96 227.094 54.5333 226.88 53.2C226.454 49.8933 226.16 47.7867 226 46.88L221.28 70H213.84L222.32 33.68H229.84C229.894 34.2133 230.027 35.0667 230.24 36.24C230.454 37.36 230.667 38.64 230.88 40.08C231.147 41.4667 231.414 42.9867 231.68 44.64C231.947 46.2933 232.187 47.8933 232.4 49.44C232.614 50.9333 232.8 52.32 232.96 53.6C233.12 54.88 233.254 55.8933 233.36 56.64C233.574 55.9467 233.947 54.96 234.48 53.68C235.067 52.4 235.68 50.9867 236.32 49.44C236.96 47.8933 237.654 46.32 238.4 44.72C239.147 43.0667 239.84 41.52 240.48 40.08C241.174 38.64 241.76 37.36 242.24 36.24C242.774 35.0667 243.174 34.2133 243.44 33.68H250.96L249.2 70H241.44C241.494 69.4133 241.547 68.5333 241.6 67.36C241.654 66.1867 241.734 64.88 241.84 63.44C242 61.9467 242.107 60.4 242.16 58.8C242.267 57.2 242.374 55.6533 242.48 54.16C242.587 52.6667 242.694 51.28 242.8 50C242.907 48.6667 242.987 47.6267 243.04 46.88ZM264.4 65.28C266 65.28 267.253 64.5333 268.16 63.04C269.12 61.5467 269.813 59.1467 270.24 55.84C270.72 52.48 270.693 50.08 270.16 48.64C269.626 47.2 268.586 46.48 267.04 46.48C265.493 46.48 264.266 47.2 263.36 48.64C262.453 50.08 261.76 52.48 261.28 55.84C260.853 59.2 260.88 61.6267 261.36 63.12C261.84 64.56 262.853 65.28 264.4 65.28ZM278.08 49.04C278.4 50.9067 278.346 53.1733 277.92 55.84C277.546 58.5067 276.933 60.7733 276.08 62.64C275.28 64.5067 274.266 66.0533 273.04 67.28C270.746 69.5733 267.626 70.72 263.68 70.72C257.813 70.72 254.426 68.0267 253.52 62.64C253.2 60.7733 253.253 58.48 253.68 55.76C254.266 50.7467 255.893 46.9867 258.56 44.48C260.96 42.1867 264.026 41.04 267.76 41.04C273.733 41.04 277.173 43.7067 278.08 49.04ZM300.147 47.68C298.387 47.0933 296.894 46.8 295.667 46.8C293.801 46.8 292.334 47.5467 291.267 49.04C290.201 50.48 289.427 52.8267 288.947 56.08C288.521 59.28 288.654 61.5467 289.347 62.88C290.094 64.16 291.134 64.8 292.467 64.8C293.854 64.8 295.054 64.6133 296.067 64.24C297.081 63.8133 297.774 63.5467 298.147 63.44L299.187 68.08C296.254 69.84 293.454 70.72 290.787 70.72C283.107 70.72 279.934 65.8933 281.267 56.24C282.601 46.1067 287.321 41.04 295.427 41.04C297.721 41.04 299.854 41.4133 301.827 42.16L300.147 47.68ZM309.44 30.32L316.96 29.28L313.52 53.92L322.4 41.68H330.8L319.84 54.32L327.68 70H318.88L313.12 56.48L311.28 70H303.84L309.44 30.32Z" fill="#FF3F79"/>
</g>
<defs>
<clipPath id="clip0_10_181">
<rect width="351" height="100" fill="white"/>
</clipPath>
</defs>
</svg>
